<svg xmlns="http://www.w3.org/2000/svg" xmlns:xlink="http://www.w3.org/1999/xlink" viewBox="-214 337.9 166 166" enable-background="new -214 337.9 166 166"><g><defs><path id="a" d="M-214 337.9h166v166h-166z"/></defs><clipPath id="b"><use xlink:href="#a" overflow="visible"/></clipPath><path clip-path="url(#b)" fill="#FFEA00" d="M-214 337.9h166v166h-166z"/><path clip-path="url(#b)" fill="none" d="M-141.3 400l29.3 9c-2.3-4.6-3.6-9.7-3.6-15.2 0-6.9 2.1-13.3 5.7-18.6-1.7-.6-3.4-1.3-5-2.1l-26.7 2.4 21.5 12.2-21.2 12.3zM-98.1 423.3l-2.9 9.6 29.2-1-4.7-5c-1.8.3-3.7.5-5.6.5-5.8 0-11.2-1.5-16-4.1zM-112.9 471.9l-57.7-17.7 2.8-9.1h-8.8c.9 3 1.3 6.1 1.3 9.3 0 6.9-2.1 13.4-5.7 18.7l26.5 15.1 15.1-13.1 16.6 10c4.9-4.8 11.3-8.1 18.4-9.2l-6.4-10.3-2.1 6.3zM-72.2 469.9l-6.7 12.5c5 3.9 8.9 9.2 11.1 15.3l5.1-16.6c-4-2.9-7.2-6.8-9.5-11.2zM-166.1 350.5l-9.5 5.6 15.7 8.9z"/><path clip-path="url(#b)" fill="#AD1457" d="M-112 409l-29.3-9-6 3.5 10 17.4-14 24.2h-16.6l-2.8 9.1 57.7 17.7 1.9-6.4-19.7-31.6 29.7-1 2.9-9.6c-5.8-3.2-10.7-8.2-13.8-14.3z"/><path clip-path="url(#b)" fill="#FFEA00" d="M-71.5 362c5.8 1.9 11 5.4 14.9 10l20.8-4.9 15.3 16.3 16.3-53.1-57.7-17.7-5.9 19.3c1.3 3.6 2 7.4 2 11.4-.1 7-2.2 13.4-5.7 18.7z"/><path clip-path="url(#b)" fill="#FF5252" d="M-112 409l16.8 5.1-2.8 9.2c4.7 2.6 10.2 4 16 4 1.9 0 3.8-.2 5.6-.5l-10.8-11.4 11.8-39 8.9-2.1-13-4c-5.6 4.1-12.4 6.5-19.9 6.5-3.7 0-7.2-.6-10.6-1.7-3.6 5.3-5.7 11.7-5.7 18.6.1 5.6 1.4 10.8 3.7 15.3z"/><path clip-path="url(#b)" fill="#283593" d="M-98.1 423.3l2.8-9.2-16.7-5.1c3.1 6.1 8 11.1 13.9 14.3z"/><path clip-path="url(#b)" fill="#00E676" d="M-79.5 370.4l13 4 9.9-2.3c-3.9-4.6-9.1-8.1-14.9-10-2.2 3.2-4.9 6-8 8.3z"/><path clip-path="url(#b)" fill="#283593" d="M-78.9 482.4l-9.9 18.6-15.7-25.2c-7.1 1.1-13.5 4.4-18.4 9.2l20 12-9.5 41.7-2.1.2c4.5 2.3 9.7 3.6 15.1 3.6 7.4 0 14.3-2.4 19.9-6.5l11.7-38.3c-2.2-6.1-6.1-11.4-11.1-15.3z"/><path clip-path="url(#b)" fill="#00E676" d="M-204.8 485.7l-.1-26.3L-181 473c3.6-5.3 5.7-11.8 5.7-18.7 0-3.2-.5-6.4-1.3-9.3h-2.5l-6.4-11.1-.5 1.8-39.6 9.3-10.1-10.7c-4.2 5.6-6.6 12.5-6.6 20 0 10.9 5.2 20.6 13.3 26.7l.8-2.6 23.4 7.3z"/><path clip-path="url(#b)" fill="#AD1457" d="M-76 454.4c0-7.5 2.5-14.4 6.6-20l-2.4-2.5-29.2 1-10 32.6 6.4 10.3c1.7-.3 3.4-.4 5.1-.4 7.7 0 14.8 2.6 20.5 7l6.7-12.5c-2.3-4.6-3.7-9.9-3.7-15.5z"/><path clip-path="url(#b)" fill="#00E676" d="M-111 465.5l10-32.6-29.7 1.1z"/><path clip-path="url(#b)" fill="#7C4DFF" d="M-104.5 475.8l15.7 25.2 9.9-18.6c-5.7-4.4-12.8-7-20.5-7-1.7 0-3.5.2-5.1.4zM-186.9 383.5l12.4 13.2h21.5l.1-.2.7.2h1l.2.3 9.7 3 21.1-12.3-21.5-12.3-13.3 1.2-4.9-11.6-15.7-8.9-3.6 2.1z"/><path clip-path="url(#b)" fill="#00E676" d="M-141.3 400l-9.7-3 3.7 6.5z"/><path clip-path="url(#b)" fill="#7C4DFF" d="M-152.9 396.5l-.1.2h.8z"/><path clip-path="url(#b)" fill="#1565C0" d="M-154.6 488.2l-26.5-15.1c-4.6 6.8-11.6 11.8-19.8 13.8l30.2 9.3-8.4 27.4 12.8-7.5-5.5-13 17.2-14.9z"/><path clip-path="url(#b)" fill="#FF5252" d="M-204.8 485.7l4 1.2c8.2-2 15.2-7.1 19.8-13.8l-23.9-13.6.1 26.2z"/><path clip-path="url(#b)" fill="#00E676" d="M-166.1 350.5l6.2 14.5 18.3 10.4 26.7-2.4c-10.7-5.6-17.9-16.8-17.9-29.7 0-9.5 3.9-18 10.2-24.1l-16.8-10.1-15.3 13.3 18.5 10.6-29.9 17.5zM-141.7 375.4l-18.2-10.4 4.9 11.6z"/><path clip-path="url(#b)" fill="#FF5252" d="M-156.8 409.1l-25.8 15.1-2.1 7c3.7 3.9 6.5 8.6 8 13.9h8.8l11.1-36z"/><path clip-path="url(#b)" fill="#283593" d="M-137.2 420.9l-10.1-17.4-9.5 5.6-11.1 36h16.7z"/><path clip-path="url(#b)" fill="#FF5252" d="M-185.6 434l6.4 11.1h2.5c-1.5-5.3-4.3-10-8-13.9l-.9 2.8zM-151.2 396.7h-1l1.2.3zM-174.5 396.7l.1.1-8.2 27.4 25.8-15.1 3.8-12.4z"/><path clip-path="url(#b)" fill="#283593" d="M-151 397l-1.2-.3h-.8l-3.8 12.4 9.5-5.6z"/><path clip-path="url(#b)" fill="#AD1457" d="M-208.9 420.9c7.2 0 13.8 2.3 19.3 6.1l-3.5-6.1 4.6-7.9-.1-25-44.3-13.6-8.9 2.1-11.8 39 17.8 19c6.1-8.3 15.9-13.6 26.9-13.6z"/><path clip-path="url(#b)" fill="#7C4DFF" d="M-186.1 435.8l.5-1.8-4-7c-5.5-3.9-12.1-6.1-19.3-6.1-11 0-20.8 5.3-26.9 13.5l10.1 10.7 39.6-9.3z"/><path clip-path="url(#b)" fill="#1565C0" d="M-174.5 396.7l-12.4-13.2-1.4 4.6-.4-.2.1 25.1 9.4-16.3z"/><path clip-path="url(#b)" fill="#AD1457" d="M-184.7 431.2l2.1-7-5.9 3.4-.1-14.6-4.6 7.9 3.5 6.1c1.9 1.3 3.5 2.7 5 4.2z"/><path clip-path="url(#b)" fill="#7C4DFF" d="M-189.6 427l4 7 .8-2.8c-1.4-1.5-3-2.9-4.8-4.2z"/><path clip-path="url(#b)" fill="#1565C0" d="M-182.6 424.2l8.2-27.4-.1-.1h-4.7l-9.4 16.3.1 14.6z"/><path clip-path="url(#b)" fill="#00E676" d="M-59 445.1l-13.2 24.8c2.3 4.4 5.6 8.3 9.5 11.3l.8-2.6 27.5 8.4c14.6-3.6 25.5-16.8 25.5-32.5 0-9-3.6-17.2-9.4-23.2l-1.4 4.6-39.3 9.2z"/><path clip-path="url(#b)" fill="#FF5252" d="M-69.4 434.4c-4.2 5.6-6.6 12.5-6.6 20 0 5.6 1.4 10.8 3.8 15.5l13.2-24.8-.3.1-10.1-10.8z"/><path clip-path="url(#b)" fill="#AD1457" d="M-52.1 378.8c2.3 4.5 3.6 9.6 3.6 15.1 0 16.6-12.1 30.4-27.9 33.1l4.7 5 4.6-.2c6.1-6.7 14.9-10.9 24.7-10.9 9.5 0 18.1 4 24.2 10.3l10.4-34.4-12.6-13.4-1.4 4.6-30.3-9.2z"/><path clip-path="url(#b)" fill="#7C4DFF" d="M-56.6 372c1.8 2.1 3.3 4.3 4.5 6.7l30.2 9.3 1.4-4.6-15.3-16.3-20.8 4.9z"/><path clip-path="url(#b)" fill="#283593" d="M-75.5 376.5l-11.8 39 10.8 11.4c15.8-2.7 27.9-16.5 27.9-33.1 0-5.4-1.3-10.5-3.6-15.1l-14.4-4.4-8.9 2.2z"/><path clip-path="url(#b)" fill="#7C4DFF" d="M-52.1 378.8c-1.2-2.4-2.7-4.7-4.5-6.7l-9.9 2.3 14.4 4.4z"/><path clip-path="url(#b)" fill="#AD1457" d="M-67.2 431.8l-4.6.2 2.4 2.5c.7-1 1.4-1.9 2.2-2.7z"/><path clip-path="url(#b)" fill="#7C4DFF" d="M-42.5 420.9c-9.8 0-18.6 4.2-24.7 10.9l15.5-.5-7.4 13.8 39.3-9.2 1.4-4.6c-6-6.4-14.6-10.4-24.1-10.4z"/><path clip-path="url(#b)" fill="#FF5252" d="M-59.3 445.1l.3-.1 7.4-13.8-15.5.5c-.8.9-1.5 1.7-2.2 2.7l10 10.7z"/><path clip-path="url(#b)" fill="#283593" d="M-112.4 372.8l-2.6.2c1.6.8 3.3 1.6 5 2.1 6-9 16.3-14.9 27.9-14.9 1.8 0 3.7.2 5.4.4l8.8-28.8c-4.7-12.9-17-22.1-31.5-22.1-9.1 0-17.3 3.6-23.3 9.4l19.8 11.9-9.5 41.8z"/><path clip-path="url(#b)" fill="#7C4DFF" d="M-71.5 362c3.6-5.3 5.7-11.7 5.7-18.6 0-4-.7-7.8-2-11.4l-8.8 28.8c1.7.2 3.4.7 5.1 1.2z"/><path clip-path="url(#b)" fill="#283593" d="M-79.5 370.4l2.9-9.6c-1.8-.3-3.6-.4-5.4-.4-11.6 0-21.9 5.9-27.9 14.9 3.3 1.1 6.9 1.7 10.6 1.7 7.3-.1 14.2-2.5 19.8-6.6zM-79.5 370.4c3.1-2.3 5.8-5.1 8-8.4-1.7-.6-3.4-1-5.1-1.3l-2.9 9.7z"/><path clip-path="url(#b)" fill="#AD1457" d="M-132.9 343.4c0 12.9 7.3 24.1 17.9 29.7l2.6-.2 9.5-41.7-19.8-11.9c-6.3 6.1-10.2 14.6-10.2 24.1z"/><path clip-path="url(#b)" fill="#1565C0" d="M-178.1 354.7l2.5 1.4 9.5-5.6-5.7-13.2 17-14.8-50.2-28.6.2 26 34.2 10.4zM-175.6 356.1l-2.5-1.4-1.1 3.5z"/><path clip-path="url(#b)" fill="#7C4DFF" d="M-166.1 350.5l29.8-17.4-18.5-10.6-17 14.8z"/><path clip-path="url(#b)" fill="#FFEA00" d="M-42.5 488c-7.6 0-14.6-2.5-20.3-6.8l-5.1 16.6c1.3 3.5 1.9 7.3 1.9 11.2 0 11.1-5.4 20.9-13.7 27l-.1.3 57.7 17.7 17.7-57.7-30.2-9.3c-2.4.6-5.1 1-7.9 1zM-65.9 509c0-3.9-.7-7.7-1.9-11.2L-79.5 536c8.3-6.1 13.6-16 13.6-27z"/><path clip-path="url(#b)" fill="#1565C0" d="M-62.7 481.1c5.6 4.3 12.6 6.8 20.3 6.8 2.8 0 5.5-.3 8.1-1l-27.5-8.4-.9 2.6z"/><path clip-path="url(#b)" fill="#FFEA00" d="M-199.5 370.1l10.8 11.4-.1-17.7zM-204.8 319.9l-23.6-7.2-17.7 57.7 13.1 4 28.4-6.7zM-179.2 358.2l-9.6 5.6.1 17.7 1.8 2z"/><path clip-path="url(#b)" fill="#7C4DFF" d="M-188.7 381.5l-10.8-11.4-5 2.9-.1-5.3-28.4 6.7 44.3 13.5zM-186.9 383.5l-1.8-2v6.4l.4.2z"/><path clip-path="url(#b)" fill="#AD1457" d="M-202.2 367.2l2.7 2.9 10.7-6.3-.1-15.3 10.8 6.2 7.5-24.4-34.2-10.4.2 47.8zM-178.1 354.7l-10.8-6.2.1 15.3 9.6-5.6z"/><path clip-path="url(#b)" fill="#283593" d="M-204.6 367.7l.1 5.3 5-2.9-2.7-2.9z"/><path clip-path="url(#b)" fill="#FFEA00" d="M-204.8 487.7c-1.3.2-2.7.3-4.1.3-7.6 0-14.6-2.5-20.3-6.8l-16.9 55.1 57.7 17.7 9.3-30.3-25.5 14.9-.2-50.9z"/><path clip-path="url(#b)" fill="#1565C0" d="M-204.8 487.7v-2l-23.5-7.2-.8 2.6c5.6 4.3 12.6 6.8 20.3 6.8 1.3.1 2.6 0 4-.2z"/><path clip-path="url(#b)" fill="#AD1457" d="M-200.8 487c-1.3.3-2.6.6-4 .7l.3 50.9 25.5-14.9 8.4-27.4-30.2-9.3z"/><path clip-path="url(#b)" fill="#FF5252" d="M-204.8 487.7c1.4-.2 2.7-.4 4-.7l-4-1.2v1.9z"/><path clip-path="url(#b)" fill="#00E676" d="M-132.9 509c0-9.4 3.8-17.8 10-23.9l-16.6-10-15.1 13.1 18.3 10.4-29.9 17.5 11.2 26.3 40.5-3.6c-10.9-5.4-18.4-16.8-18.4-29.8z"/><path clip-path="url(#b)" fill="#AD1457" d="M-102.9 497l-20-12c-6.2 6.1-10 14.6-10 23.9 0 13.1 7.5 24.4 18.4 29.9l2.1-.2 9.5-41.6z"/><path clip-path="url(#b)" fill="#7C4DFF" d="M-154.6 488.2l-17.2 15 5.6 13 29.9-17.6z"/></g></svg>