<svg xmlns="http://www.w3.org/2000/svg" fill="#fff" width="67.858" height="67.859" viewBox="0 0 67.858 67.859"><path d="M63 13.792c-.47.47-1.232.47-1.702 0l-.755.755c-.513.513-1.31.576-1.894.19L48.7 24.686l-5.53-5.53 9.948-9.947c-.385-.584-.322-1.38.19-1.894l.755-.755c-.47-.47-.47-1.232 0-1.702s1.23-.47 1.7 0l1.87-1.868c-.47-.47-.47-1.23 0-1.702.47-.47 1.23-.47 1.7 0l.852-.85c.513-.513 1.31-.576 1.894-.19l.022-.022.212.212 5.105 5.105.21.213-.02.022c.385.583.322 1.38-.19 1.893l-.85.852c.47.47.468 1.232 0 1.7-.472.472-1.233.472-1.702 0l-1.87 1.87c.47.47.472 1.23 0 1.7zM33.822 62.967C25.818 70.972 17.69 68.372 9.23 60.79l-.02.02-2.128-2.127.02-.02c-7.608-8.472-10.227-16.61-2.21-24.627 3.338-3.34 7.784-4.965 12.345-4.922l.012-.01c1.075-.044 2.134-.517 3.032-1.415 1.2-1.2 2.156-2.494 2.843-3.763.128-.263.266-.52.413-.772l.022-.037c.146-.245.3-.484.465-.718l.04-.06.22-.297c.015-.016.026-.032.038-.047.085-.11.172-.22.262-.325l.05-.058c.074-.086.15-.172.226-.256l.076-.082c.094-.102.188-.2.286-.3 5.003-5.002 12.287-4.434 18.874 2.787 7.22 6.588 7.79 13.873 2.787 18.875-.876.876-1.872 1.573-2.95 2.097-1.27.687-2.563 1.644-3.764 2.844-.9.898-1.372 1.957-1.414 3.033l-.01.01c.042 4.563-1.584 9.008-4.923 12.347zM25.358 48.42c.547-.546.548-1.433 0-1.98l-3.94-3.94c-.546-.547-1.433-.546-1.98 0s-.546 1.434 0 1.98l3.94 3.94c.548.548 1.434.548 1.98 0zm9.73-8.276c2.038-2.037 2.038-5.34.002-7.375-2.036-2.036-5.338-2.036-7.374 0-2.035 2.036-2.036 5.338 0 7.374 2.036 2.035 5.338 2.035 7.373 0z"/></svg>